<svg width="142" height="63" viewBox="0 0 142 63" fill="none" xmlns="http://www.w3.org/2000/svg">
<path d="M19.4 49.95C15.9667 49.95 13.05 49.3167 10.65 48.05C8.28333 46.75 6.48333 44.9167 5.25 42.55C4.01667 40.1833 3.4 37.3833 3.4 34.15V12.5H11.6V34.45C11.6 36.05 11.9 37.45 12.5 38.65C13.1333 39.8167 14.0167 40.7167 15.15 41.35C16.3167 41.9833 17.7333 42.3 19.4 42.3C21.1 42.3 22.5167 41.9833 23.65 41.35C24.8167 40.7167 25.7 39.8167 26.3 38.65C26.9 37.4833 27.2 36.0833 27.2 34.45V12.5H35.4V34.15C35.4 37.3833 34.7833 40.1833 33.55 42.55C32.3167 44.9167 30.5167 46.75 28.15 48.05C25.7833 49.3167 22.8667 49.95 19.4 49.95Z" fill="#2E3192"/>
<path d="M38.95 49L51.4 29.55L51.5 30.4L40 12.5H49L56.1 23.9H57.25L64.25 12.5H73L61.45 30.5L61.3 29.7L74.15 49H65.1L56.8 36.1H55.6L47.7 49H38.95Z" fill="#2E3192"/>
<path d="M81 59L61 29L57 36L71.5 59H81Z" fill="#2E3192"/>
<path d="M83.089 26.323C81.967 26.323 81.0037 26.1303 80.199 25.745C79.3943 25.3483 78.737 24.8327 78.227 24.198C77.717 23.552 77.3373 22.8607 77.088 22.124C76.85 21.376 76.731 20.6507 76.731 19.948V19.574C76.731 18.8033 76.8557 18.044 77.105 17.296C77.3543 16.5367 77.734 15.851 78.244 15.239C78.7653 14.627 79.417 14.1397 80.199 13.777C80.9923 13.403 81.9273 13.216 83.004 13.216C84.126 13.216 85.1177 13.4257 85.979 13.845C86.8403 14.2643 87.526 14.848 88.036 15.596C88.5573 16.3327 88.8633 17.1997 88.954 18.197H86.149C86.0697 17.6983 85.8883 17.2733 85.605 16.922C85.3217 16.5707 84.9533 16.2987 84.5 16.106C84.058 15.9133 83.5593 15.817 83.004 15.817C82.4487 15.817 81.9557 15.9133 81.525 16.106C81.0943 16.2987 80.7317 16.5707 80.437 16.922C80.1537 17.2733 79.9327 17.6927 79.774 18.18C79.6267 18.656 79.553 19.1887 79.553 19.778C79.553 20.356 79.6267 20.8887 79.774 21.376C79.9327 21.852 80.1593 22.2713 80.454 22.634C80.76 22.9853 81.134 23.2573 81.576 23.45C82.018 23.6313 82.5223 23.722 83.089 23.722C83.9503 23.722 84.6757 23.5123 85.265 23.093C85.8657 22.6737 86.2283 22.0957 86.353 21.359H89.141C89.039 22.2657 88.733 23.0987 88.223 23.858C87.7243 24.606 87.0387 25.2067 86.166 25.66C85.3047 26.102 84.279 26.323 83.089 26.323ZM96.9407 26.323C95.8187 26.323 94.8383 26.1303 93.9997 25.745C93.1723 25.3483 92.4867 24.8327 91.9427 24.198C91.3987 23.552 90.9907 22.855 90.7187 22.107C90.458 21.359 90.3277 20.6393 90.3277 19.948V19.574C90.3277 18.8033 90.4637 18.044 90.7357 17.296C91.019 16.5367 91.4383 15.851 91.9937 15.239C92.549 14.627 93.2403 14.1397 94.0677 13.777C94.895 13.403 95.8527 13.216 96.9407 13.216C98.0287 13.216 98.9863 13.403 99.8137 13.777C100.641 14.1397 101.332 14.627 101.888 15.239C102.443 15.851 102.862 16.5367 103.146 17.296C103.429 18.044 103.571 18.8033 103.571 19.574V19.948C103.571 20.6393 103.435 21.359 103.163 22.107C102.891 22.855 102.483 23.552 101.939 24.198C101.395 24.8327 100.703 25.3483 99.8647 25.745C99.0373 26.1303 98.0627 26.323 96.9407 26.323ZM96.9407 23.722C97.53 23.722 98.057 23.62 98.5217 23.416C98.9977 23.212 99.4 22.9287 99.7287 22.566C100.069 22.2033 100.324 21.784 100.494 21.308C100.664 20.832 100.749 20.322 100.749 19.778C100.749 19.2 100.658 18.673 100.477 18.197C100.307 17.7097 100.052 17.2903 99.7117 16.939C99.383 16.5763 98.9863 16.2987 98.5217 16.106C98.057 15.9133 97.53 15.817 96.9407 15.817C96.3513 15.817 95.8243 15.9133 95.3597 16.106C94.895 16.2987 94.4927 16.5763 94.1527 16.939C93.824 17.2903 93.5747 17.7097 93.4047 18.197C93.2347 18.673 93.1497 19.2 93.1497 19.778C93.1497 20.322 93.2347 20.832 93.4047 21.308C93.5747 21.784 93.824 22.2033 94.1527 22.566C94.4927 22.9287 94.895 23.212 95.3597 23.416C95.8243 23.62 96.3513 23.722 96.9407 23.722ZM108.131 22.447V20.033H110.358C110.789 20.033 111.157 19.948 111.463 19.778C111.78 19.608 112.024 19.37 112.194 19.064C112.364 18.7467 112.449 18.384 112.449 17.976C112.449 17.5453 112.364 17.177 112.194 16.871C112.024 16.5537 111.78 16.3157 111.463 16.157C111.157 15.987 110.789 15.902 110.358 15.902H108.131V13.488H110.222C111.276 13.488 112.177 13.6637 112.925 14.015C113.684 14.3663 114.262 14.865 114.659 15.511C115.067 16.157 115.271 16.9333 115.271 17.84V18.112C115.271 18.996 115.067 19.7667 114.659 20.424C114.262 21.07 113.684 21.5687 112.925 21.92C112.177 22.2713 111.276 22.447 110.222 22.447H108.131ZM105.683 26V13.488H108.471V26H105.683ZM117.022 26V13.59H119.742V26H117.022ZM119.402 26V23.688H124.825V26H119.402ZM119.402 20.849V18.537H124.434V20.849H119.402ZM119.402 15.902V13.59H124.706V15.902H119.402ZM127.116 26V13.59H131.689L136.364 23.739H136.942L136.602 24.045V13.59H139.22V26H134.613L129.938 15.851H129.36L129.7 15.545V26H127.116ZM85.418 47V34.59H88.206V47H85.418ZM77.394 47V34.59H80.182V47H77.394ZM79.689 41.985V39.537H85.911V41.985H79.689ZM89.8177 47L93.9147 34.59H98.4197L102.67 47H99.7797L96.3457 36.511L97.2297 36.868H95.0367L95.9547 36.511L92.6057 47H89.8177ZM92.9287 43.923L93.7787 41.611H98.6407L99.5077 43.923H92.9287ZM109.639 47.323C108.529 47.323 107.56 47.1417 106.732 46.779C105.905 46.405 105.219 45.9063 104.675 45.283C104.143 44.6597 103.746 43.9683 103.485 43.209C103.225 42.4497 103.094 41.6903 103.094 40.931V40.557C103.094 39.775 103.225 39.01 103.485 38.262C103.746 37.514 104.137 36.834 104.658 36.222C105.191 35.61 105.848 35.1227 106.63 34.76C107.424 34.3973 108.336 34.216 109.367 34.216C110.489 34.216 111.481 34.4257 112.342 34.845C113.204 35.253 113.895 35.8253 114.416 36.562C114.938 37.2873 115.238 38.1317 115.317 39.095H112.529C112.461 38.6417 112.28 38.245 111.985 37.905C111.702 37.565 111.334 37.2987 110.88 37.106C110.438 36.9133 109.934 36.817 109.367 36.817C108.823 36.817 108.336 36.9133 107.905 37.106C107.486 37.2987 107.123 37.5707 106.817 37.922C106.523 38.2733 106.296 38.6927 106.137 39.18C105.99 39.656 105.916 40.183 105.916 40.761C105.916 41.3617 105.996 41.9113 106.154 42.41C106.324 42.8973 106.568 43.3223 106.885 43.685C107.203 44.0363 107.594 44.3083 108.058 44.501C108.534 44.6937 109.061 44.79 109.639 44.79C110.41 44.79 111.079 44.6313 111.645 44.314C112.212 43.9967 112.62 43.5773 112.869 43.056L112.529 44.96V42.002H115.096V44.654C114.564 45.5153 113.827 46.1783 112.886 46.643C111.957 47.0963 110.875 47.323 109.639 47.323ZM109.282 42.546V40.54H116.116V42.546H109.282ZM117.918 47V34.59H120.638V47H117.918ZM120.298 47V44.688H125.721V47H120.298ZM120.298 41.849V39.537H125.33V41.849H120.298ZM120.298 36.902V34.59H125.602V36.902H120.298ZM128.012 47V34.59H132.585L137.26 44.739H137.838L137.498 45.045V34.59H140.116V47H135.509L130.834 36.851H130.256L130.596 36.545V47H128.012Z" fill="#2E3192"/>
</svg>
