<svg xmlns="http://www.w3.org/2000/svg" fill="none" viewBox="-0.25 -0.25 14 14" height="14" width="14"><g id="instagram"><g id="Group 4546"><path id="Vector" stroke="#2e3192" stroke-linecap="round" stroke-linejoin="round" d="M9.964157142857143 3.5138957142857143c-0.13316785714285714 0 -0.24107142857142858 -0.1079325 -0.24107142857142858 -0.24107142857142858s0.10790357142857143 -0.24107142857142858 0.24107142857142858 -0.24107142857142858" stroke-width="0.5"></path><path id="Vector_2" stroke="#2e3192" stroke-linecap="round" stroke-linejoin="round" d="M9.964157142857143 3.5138957142857143c0.13316785714285714 0 0.24107142857142858 -0.1079325 0.24107142857142858 -0.24107142857142858s-0.10790357142857143 -0.24107142857142858 -0.24107142857142858 -0.24107142857142858" stroke-width="0.5"></path></g><path id="Rectangle 2" stroke="#2e3192" stroke-linecap="round" stroke-linejoin="round" d="M0.8276232857142858 3.308859642857143c0 -1.3702789285714285 1.1108320714285715 -2.481118714285714 2.481120642857143 -2.481118714285714h6.616359642857144c1.37025 0 2.4811071428571427 1.1108397857142858 2.4811071428571427 2.481118714285714v6.616340357142858c0 1.37025 -1.1108571428571428 2.4811071428571427 -2.4811071428571427 2.4811071428571427H3.308743928571429c-1.3702885714285715 0 -2.481120642857143 -1.1108571428571428 -2.481120642857143 -2.4811071428571427V3.308859642857143Z" stroke-width="0.5"></path><path id="Ellipse 11" stroke="#2e3192" stroke-linecap="round" stroke-linejoin="round" d="M4.158 6.616928571428572a2.4589285714285714 2.4589285714285714 0 1 0 4.917857142857143 0 2.4589285714285714 2.4589285714285714 0 1 0 -4.917857142857143 0" stroke-width="0.5"></path></g></svg>