<svg xmlns="http://www.w3.org/2000/svg" fill="none" viewBox="-0.25 -0.25 14 14" height="14" width="14"><g id="facebook-1--media-facebook-social"><path id="Vector" stroke="#2e3192" stroke-linecap="round" stroke-linejoin="round" d="M0.48214285714285715 12.053571428571429v-10.607142857142858c0 -0.25574785714285714 0.10159425000000001 -0.5010139285714286 0.2824325357142857 -0.6818531785714286C0.9454146428571429 0.5837371071428572 1.1906807142857143 0.48214285714285715 1.4464285714285714 0.48214285714285715h10.607142857142858c0.2557285714285714 0 0.5010428571428571 0.10159425000000001 0.6818464285714285 0.2824325357142857 0.18080357142857142 0.18083925 0.2824392857142857 0.42610532142857144 0.2824392857142857 0.6818531785714286v10.607142857142858c0 0.2557285714285714 -0.10163571428571429 0.5010428571428571 -0.2824392857142857 0.6818464285714285s-0.42611785714285716 0.2824392857142857 -0.6818464285714285 0.2824392857142857h-2.892857142857143V8.447142857142858h0.6846428571428571c0.15602142857142856 0 0.30558214285714286 -0.06197464285714285 0.4158964285714286 -0.17227928571428572 0.11031428571428571 -0.11031428571428571 0.17231785714285713 -0.2599328571428572 0.17231785714285713 -0.415935v-0.7425c0 -0.07724892857142858 -0.015235714285714288 -0.15373607142857143 -0.04474285714285714 -0.22510285714285716 -0.02960357142857143 -0.07136678571428572 -0.0729 -0.13620535714285714 -0.127575 -0.19083214285714287 -0.05457857142857143 -0.054617142857142864 -0.119475 -0.0979425 -0.19083214285714287 -0.1275075 -0.07135714285714286 -0.029555357142857144 -0.14782499999999998 -0.044771785714285715 -0.22506428571428572 -0.044771785714285715h-0.6460714285714286v-0.9064285714285714c0 -0.8099999999999999 0.36642857142857144 -0.8099999999999999 0.7328571428571429 -0.8099999999999999h0.4725c0.077625 0.0032014285714285716 0.15496071428571428 -0.010693928571428571 0.22660714285714284 -0.04068321428571429 0.07164642857142858 -0.029989285714285715 0.13586785714285715 -0.07535892857142858 0.1880357142857143 -0.1328882142857143 0.056025 -0.05334428571428572 0.10038214285714285 -0.11774892857142857 0.130275 -0.18911571428571428 0.029892857142857145 -0.07137642857142858 0.04464642857142857 -0.1481625 0.043296428571428576 -0.22552714285714287v-0.7135714285714285c0.0026035714285714286 -0.07852178571428572 -0.010317857142857143 -0.1567832142857143 -0.038089285714285714 -0.23030035714285713 -0.027675 -0.07352678571428571 -0.069525 -0.1408725 -0.12333214285714288 -0.19818964285714286 -0.053710714285714285 -0.0573075 -0.11822142857142857 -0.1034775 -0.1897714285714286 -0.13584857142857143S10.492778571428572 2.8953450000000003 10.414285714285715 2.892857142857143H9.305357142857144c-0.32356607142857147 -0.012169285714285714 -0.6459171428571429 0.046054285714285714 -0.9447975000000001 0.17064000000000001 -0.29887071428571427 0.12457607142857142 -0.5671350000000001 0.31255392857142855 -0.7862592857142857 0.550935 -0.21913392857142858 0.2383907142857143 -0.38390142857142856 0.5214953571428572 -0.48293357142857146 0.8297775000000001 -0.09903214285714286 0.30828214285714284 -0.1299567857142857 0.6343842857142857 -0.0906525 0.9557903571428572v1.1282142857142856h-0.6171428571428572c-0.07804928571428571 -0.0012825 -0.15557785714285716 0.012988928571428571 -0.2280632142857143 0.04197535714285714 -0.07248535714285714 0.028986428571428573 -0.13847142857142858 0.07210928571428571 -0.1941107142857143 0.1268614285714286 -0.05564892857142857 0.05475214285714285 -0.09984214285714285 0.12002464285714286 -0.130005 0.19202785714285717C5.801229642857143 6.961082142857142 5.7857046428571435 7.038369642857143 5.785714285714286 7.116428571428571v0.7425c-0.00000964285714285714 0.07805892857142857 0.015515357142857143 0.15534642857142858 0.04567821428571429 0.22734964285714288 0.030162857142857144 0.07200321428571428 0.07435607142857142 0.13727571428571428 0.130005 0.19202785714285717 0.05563928571428572 0.05475214285714285 0.12162535714285713 0.097875 0.1941107142857143 0.1268614285714286 0.07248535714285714 0.028986428571428573 0.1500139285714286 0.04325785714285714 0.2280632142857143 0.04197535714285714h0.6171428571428572v4.570714285714286H1.4464285714285714c-0.25574785714285714 0 -0.5010139285714286 -0.10163571428571429 -0.6818531785714286 -0.2824392857142857C0.5837371071428572 12.554614285714287 0.48214285714285715 12.3093 0.48214285714285715 12.053571428571429Z" stroke-width="0.5"></path></g></svg>