<svg xmlns="http://www.w3.org/2000/svg" fill="none" viewBox="-0.25 -0.25 14 14" height="14" width="14"><g id="twitter--media-twitter-social"><path id="Vector" stroke="#2e3192" stroke-linecap="round" stroke-linejoin="round" d="M3.857162142857143 9.064305c-0.6885578571428572 0.5408389285714286 -1.4788767857142857 0.9376521428571429 -2.3239285714285716 1.1667664285714285 -0.09308250000000001 0.03384642857142857 -0.17350392857142857 0.09546428571428572 -0.2303292857142857 0.1764642857142857 -0.056835000000000004 0.08109642857142857 -0.08732571428571428 0.17771785714285715 -0.08732571428571428 0.27675 0 0.09903214285714286 0.030490714285714288 0.19565357142857143 0.08732571428571428 0.27675 0.05682535714285715 0.08109642857142857 0.13724678571428572 0.1427142857142857 0.2303292857142857 0.1764642857142857C8.206090714285715 13.876071428571429 12.448928571428572 9.642857142857142 11.802857142857142 4.946805l1.08 -2.237142857142857h-1.2535714285714286C10.067142857142857 0.7907355 5.920733571428571 0.8871640714285715 6.605376428571429 4.975733571428572c0 0 -2.2178571428571425 0.39535714285714285 -5.052857142857143 -2.3914285714285715 -0.06558107142857143 -0.06474214285714286 -0.1483457142857143 -0.10934035714285716 -0.23848714285714287 -0.12850071428571427 -0.09014142857142857 -0.019160357142857142 -0.18387964285714287 -0.012092142857142859 -0.2701253571428571 0.020375357142857143 -0.08624667857142858 0.032467499999999996 -0.16138092857142858 0.08897464285714286 -0.2165052857142857 0.16282928571428573 -0.05512339285714286 0.073845 -0.08792742857142857 0.1619517857142857 -0.09452796428571429 0.2538675 -0.2997655714285714 1.2322125 -0.1497497142857143 2.530960714285714 0.42303503571428575 3.662386071428571 0.5727857142857142 1.1314253571428572 1.5306975 2.0211814285714285 2.7012535714285715 2.5090425Z" stroke-width="0.5"></path></g></svg>